<?xml version="1.0" encoding="UTF-8" standalone="no"?>
<!DOCTYPE svg PUBLIC "-//W3C//DTD SVG 1.1//EN" "http://www.w3.org/Graphics/SVG/1.1/DTD/svg11.dtd">
<!-- Created with Vectornator (http://vectornator.io/) -->
<svg height="100%" stroke-miterlimit="10" style="fill-rule:nonzero;clip-rule:evenodd;stroke-linecap:round;stroke-linejoin:round;" version="1.1" viewBox="0 0 2822.75 2050.76" width="100%" xml:space="preserve" xmlns="http://www.w3.org/2000/svg" xmlns:vectornator="http://vectornator.io" xmlns:xlink="http://www.w3.org/1999/xlink">
<defs/>
<g id="Fledermaus" vectornator:layerName="Fledermaus"/>
<g id="Racing" vectornator:layerName="Racing"/>
<g id="Echo" vectornator:layerName="Echo">
<g opacity="1" vectornator:layerName="Gruppieren 1">
<path d="M1616.67 1465C1642.85 1490.8 1724.96 1475.76 1761.13 1478.37C1818.88 1482.56 1928.04 1535.34 1985.94 1535.53C2183.85 1536.16 2197.03 1457.99 2202.2 1383.74C2202.2 1383.74 2286.02 1345.56 2314.41 1333.96C2345.46 1321.26 2411.38 1304.62 2440 1286.89C2455.41 1277.34 2477.46 1245.91 2493.37 1237.26C2508.56 1228.99 2545.42 1229.62 2560.19 1220.59C2568.73 1215.36 2589.4 1200.15 2586.86 1190.27C2582.54 1173.46 2538.84 1173.35 2522.62 1168.44C2507.37 1163.83 2476.95 1152.24 2461.06 1152.1C2446.63 1151.98 2415.65 1175.93 2404.93 1166C2393.9 1155.78 2402.93 1116.89 2412.8 1105.49C2458.14 1053.13 2508.34 1087.62 2506.3 1061.25C2503.54 1025.52 2420.54 987.237 2486.91 786.346C2536.44 636.425 2671.52 676.87 2652.32 620.943C2633.46 566.001 2644.21 399.899 2651.6 326.743C2664.65 197.479 2739.28 92.8021 2739.28 92.8021C2739.28 92.8021 2723.15 59.6721 2664.31 60.0025C2590.09 60.4188 2410.1 120.268 2359.7 176.277C2218.34 333.369 1912.79 589.057 1861.05 779.727C1847.07 831.226 1890.99 991.364 1890.99 991.364C1890.99 991.364 1770.5 906.924 1740.91 868.025C1705.32 821.24 1668.47 706.098 1646.76 651.055C1617.1 575.83 1538.66 517.787 1538.23 346.138C1537.9 211.41 1593.25 178.502 1589.38 156.286C1586.14 137.668 1537.95 128.751 1519.78 131.72C1496.67 135.498 1457.02 168.993 1445.04 189.656C1406.92 255.365 1402.39 415.742 1400.32 492.223C1398.5 559.16 1421.87 691.982 1425.04 758.866C1425.86 776.029 1417.73 812.238 1425.21 827.604C1456.23 891.28 1593.24 953.388 1647.62 997.498C1725.34 1060.53 1751.42 1113.09 1725.55 1145.77C1677.55 1206.39 1557.13 1179.2 1557.13 1179.2C1557.13 1179.2 1567.36 1229.3 1573.34 1245.15C1577.45 1256.04 1593.15 1274.78 1594.84 1286.34C1596.86 1300.2 1582.94 1327.4 1584.28 1341.36C1585.83 1357.62 1604.39 1386 1608.5 1401.78C1612.51 1417.18 1605.48 1453.97 1616.67 1465" fill="#0c0c0c" fill-rule="nonzero" opacity="1" stroke="#c800ea" stroke-linecap="round" stroke-linejoin="round" stroke-width="33.2863" vectornator:layerName="Fledermaus"/>
<g fill="#c800ea" opacity="1" stroke="#000000" stroke-linecap="round" stroke-linejoin="round" stroke-width="10.9827" vectornator:layerName="Racing">
<path d="M1559.63 1917.76C1569.75 1917.76 1576.5 1910.83 1576.5 1900.33L1576.5 1807.36L1641.17 1807.36L1695.34 1906.89C1699.65 1914.95 1704.15 1917.76 1711.83 1917.76C1721.58 1917.76 1729.08 1911.02 1729.08 1902.21C1729.08 1898.46 1728.14 1895.08 1725.51 1890.4L1676.03 1802.11C1709.96 1791.43 1730.39 1762.19 1730.39 1724.51C1730.39 1675.78 1696.27 1643.91 1644.17 1643.91L1559.63 1643.91C1549.32 1643.91 1542.76 1650.66 1542.76 1661.35L1542.76 1900.33C1542.76 1910.83 1549.51 1917.76 1559.63 1917.76ZM1576.5 1777.56L1576.5 1673.9L1639.67 1673.9C1674.53 1673.9 1695.52 1693.21 1695.52 1725.64C1695.52 1758.81 1675.84 1777.56 1641.17 1777.56L1576.5 1777.56Z"/>
<path d="M1824.48 1917.76C1850.72 1917.76 1875.65 1903.14 1887.28 1880.84L1888.02 1880.84L1888.02 1901.27C1888.02 1911.02 1894.4 1917.76 1903.58 1917.76C1912.58 1917.76 1918.95 1911.02 1918.95 1901.27L1918.95 1779.62C1918.95 1740.82 1890.09 1716.08 1844.35 1716.08C1812.67 1716.08 1784.18 1730.14 1773.12 1751.5C1770.5 1756.19 1769.19 1760.88 1769.19 1765C1769.19 1773.81 1775.19 1779.62 1783.62 1779.62C1789.81 1779.62 1794.12 1777.18 1797.12 1771.75C1807.99 1752.44 1822.42 1744.76 1843.6 1744.76C1870.59 1744.76 1886.34 1759 1886.34 1782.81L1886.34 1799.11L1830.29 1802.3C1785.31 1804.92 1759.63 1825.92 1759.63 1859.28C1759.63 1894.33 1785.68 1917.76 1824.48 1917.76ZM1831.79 1890.02C1808.36 1890.02 1792.81 1877.84 1792.81 1859.28C1792.81 1840.91 1807.8 1829.29 1834.04 1827.6L1886.34 1824.42L1886.34 1840.35C1886.34 1868.47 1862.53 1890.02 1831.79 1890.02Z"/>
<path d="M2040.79 1917.76C2076.21 1917.76 2107.14 1898.27 2116.51 1871.28C2117.45 1868.28 2118.01 1865.47 2118.01 1863.03C2118.01 1854.6 2112.39 1848.79 2103.96 1848.79C2096.83 1848.79 2093.27 1851.41 2088.59 1860.22C2078.46 1878.96 2064.22 1889.09 2040.79 1889.09C2007.24 1889.09 1983.99 1861.72 1983.99 1816.92C1983.99 1773.25 2006.86 1744.76 2040.79 1744.76C2063.28 1744.76 2078.09 1754.32 2088.4 1773.62C2092.9 1782.06 2096.83 1785.06 2103.96 1785.06C2112.39 1785.06 2117.83 1779.43 2117.83 1770.81C2117.83 1768.75 2117.45 1766.31 2116.7 1763.88C2109.2 1736.88 2077.15 1716.08 2040.41 1716.08C1986.43 1716.08 1950.82 1756 1950.82 1817.3C1950.82 1878.96 1986.81 1917.76 2040.79 1917.76Z"/>
<path d="M2170.68 1686.65C2181.93 1686.65 2191.11 1677.47 2191.11 1666.41C2191.11 1655.16 2181.93 1646.16 2170.68 1646.16C2159.62 1646.16 2150.44 1655.16 2150.44 1666.41C2150.44 1677.47 2159.62 1686.65 2170.68 1686.65ZM2170.68 1917.76C2180.24 1917.76 2186.99 1910.64 2186.99 1900.33L2186.99 1733.51C2186.99 1723.2 2180.24 1716.08 2170.68 1716.08C2161.12 1716.08 2154.38 1723.2 2154.38 1733.51L2154.38 1900.33C2154.38 1910.64 2161.12 1917.76 2170.68 1917.76Z"/>
<path d="M2247.35 1917.76C2256.91 1917.76 2263.65 1910.64 2263.65 1900.33L2263.65 1799.68C2263.65 1766.69 2283.71 1744.94 2314.45 1744.94C2344.44 1744.94 2359.25 1762.19 2359.25 1793.68L2359.25 1900.33C2359.25 1910.64 2366 1917.76 2375.56 1917.76C2385.11 1917.76 2391.86 1910.64 2391.86 1900.33L2391.86 1787.87C2391.86 1743.63 2367.12 1716.08 2324.38 1716.08C2294.21 1716.08 2273.4 1729.57 2262.53 1750.57L2261.78 1750.57L2261.78 1732.57C2261.78 1722.83 2255.41 1716.08 2246.41 1716.08C2237.41 1716.08 2231.04 1722.83 2231.04 1732.57L2231.04 1900.33C2231.04 1910.64 2237.79 1917.76 2247.35 1917.76Z"/>
<path d="M2512.01 1987.87C2567.49 1988.43 2601.98 1956.94 2601.98 1910.45L2601.98 1732.95C2601.98 1722.83 2595.05 1716.08 2585.68 1716.08C2576.3 1716.08 2569.37 1722.83 2569.37 1732.95L2569.37 1751.5L2568.81 1751.5C2555.87 1729.57 2534.32 1716.08 2506.76 1716.08C2456.34 1716.08 2423.73 1755.07 2423.73 1816.17C2423.73 1876.71 2456.34 1915.89 2506.01 1915.89C2533.38 1915.89 2556.62 1902.02 2568.62 1880.84L2569.37 1880.84L2569.37 1911.58C2569.37 1940.63 2548.19 1960.69 2513.32 1960.12C2493.45 1959.75 2479.77 1952.63 2463.09 1934.26C2458.03 1928.63 2454.84 1926.76 2449.41 1926.76C2440.78 1926.76 2434.79 1932.57 2434.79 1940.82C2434.79 1945.13 2435.91 1948.88 2438.54 1953C2452.22 1974.56 2479.4 1987.49 2512.01 1987.87ZM2512.57 1887.21C2479.02 1887.21 2457.09 1859.84 2457.09 1816.17C2457.09 1772.5 2479.02 1744.76 2512.57 1744.76C2546.5 1744.76 2569.37 1773.25 2569.37 1816.17C2569.37 1859.09 2546.5 1887.21 2512.57 1887.21Z"/>
</g>
<path d="M72.1909 1436.4L298.995 1435.42" fill="none" opacity="1" stroke="#c800ea" stroke-linecap="round" stroke-linejoin="round" stroke-width="32.8688"/>
<path d="M700.697 1438.54L933.233 1439.05L933.233 1439.05L933.233 1439.05" fill="none" opacity="1" stroke="#c800ea" stroke-linecap="round" stroke-linejoin="round" stroke-width="32.8688"/>
<path d="M1314.78 1243.98C1314.78 1243.98 1519.03 1416.43 1315.93 1649.08" fill="none" opacity="1" stroke="#c800ea" stroke-linecap="round" stroke-linejoin="round" stroke-width="32.8688"/>
<path d="M706.626 961.182C706.626 961.182 98.0053 1433.5 699.311 1858.27" fill="none" opacity="1" stroke="#000000" stroke-linecap="round" stroke-linejoin="round" stroke-width="32.8688"/>
<path d="M364.336 841.027C364.336 841.027-317.083 1389.72 359.349 1979.16" fill="none" opacity="1" stroke="#000000" stroke-linecap="round" stroke-linejoin="round" stroke-width="32.8688"/>
<path d="M937.119 1042.86C937.119 1042.86 401.453 1412.91 914.395 1777.48" fill="none" opacity="1" stroke="#000000" stroke-linecap="round" stroke-linejoin="round" stroke-width="32.8688"/>
<path d="M1313.14 1245.24C1313.14 1245.24 997.441 1450.55 1318.73 1650.24" fill="none" opacity="1" stroke="#000000" stroke-linecap="round" stroke-linejoin="round" stroke-width="32.8688"/>
<path d="M1120.17 1147.4C1120.17 1147.4 711.563 1464.76 1120.47 1717.24" fill="none" opacity="1" stroke="#000000" stroke-linecap="round" stroke-linejoin="round" stroke-width="32.8688"/>
</g>
</g>
</svg>
